HIERARCHY
ROOT pelvis
{
  OFFSET 0 100 0
  CHANNELS 6 Xposition Yposition Zposition Zrotation Xrotation Yrotation
  JOINT pelvis_right_femur
  {
    OFFSET -10.78128 -3.44521 -0.5502486
    CHANNELS 3 Zrotation Xrotation Yrotation
    JOINT right_femur_tibia
    {
      OFFSET -0.8047443 -44.0398 -0.1307829
      CHANNELS 3 Zrotation Xrotation Yrotation
      JOINT right_tibia_foot
      {
        OFFSET 3.006224 -47.83518 -5
        CHANNELS 3 Zrotation Xrotation Yrotation
        End Site
        {
          OFFSET 0 -5 15
        }
      }
    }
  }
  JOINT pelvis_left_femur
  {
    OFFSET 10.78128 -3.44521 -0.5502486
    CHANNELS 3 Zrotation Xrotation Yrotation
    JOINT left_femur_tibia
    {
      OFFSET 0.8047443 -44.0398 -0.1307829
      CHANNELS 3 Zrotation Xrotation Yrotation
      JOINT left_tibia_foot
      {
        OFFSET -4.370144 -48.10324 -4.275266
        CHANNELS 3 Zrotation Xrotation Yrotation
        End Site
        {
          OFFSET 0 -5 15
        }
      }
    }
  }
  JOINT pelvis_spine1
  {
    OFFSET 0 6.468898 -3.129235
    CHANNELS 3 Zrotation Xrotation Yrotation
    JOINT spine1
    {
      OFFSET 0 23.15396 4.99043
      CHANNELS 3 Zrotation Xrotation Yrotation
      JOINT spine2
      {
        OFFSET 0 20.79997 -5.064912
        CHANNELS 3 Zrotation Xrotation Yrotation
        JOINT neck
        {
          OFFSET 0 14.38658 9.616178
          CHANNELS 3 Zrotation Xrotation Yrotation
          End Site
          {
            OFFSET 0 20 0
          }
        }
      }
      JOINT right_manubrium
      {
        OFFSET -5.722621 16.35077 3.967754
        CHANNELS 3 Zrotation Xrotation Yrotation
        JOINT right_clavicle
        {
          OFFSET -13.16364 1.694482 -4.693211
          CHANNELS 3 Zrotation Xrotation Yrotation
          JOINT right_humerus
          {
            OFFSET -28.5034 -0.3100689 -2.792744
            CHANNELS 3 Zrotation Xrotation Yrotation
            JOINT right_radius
            {
              OFFSET -25.15693 0.02248979 -1.271978
              CHANNELS 3 Zrotation Xrotation Yrotation
              End Site
              {
                OFFSET -15 0 0
              }
            }
          }
        }
      }
      JOINT left_manubrium
      {
        OFFSET 5.722621 16.35077 3.967754
        CHANNELS 3 Zrotation Xrotation Yrotation
        JOINT left_clavicle
        {
          OFFSET 13.16364 1.694482 -4.693211
          CHANNELS 3 Zrotation Xrotation Yrotation
          JOINT left_humerus
          {
            OFFSET 29.39168 -1.063119 -2.237045
            CHANNELS 3 Zrotation Xrotation Yrotation
            JOINT left_radius
            {
              OFFSET 24.59957 -0.9528479 0.9047498
              CHANNELS 3 Zrotation Xrotation Yrotation
              End Site
              {
                OFFSET 15 -0 -0
              }
            }
          }
        }
      }
    }
  }
}
MOTION
Frames: 23
Frame Time: 0.0416666666667
15.01605 97.64523 2988.483 -0.1315264 -7.936095 -9.40065 1.167097 16.17891 2.1768 -0 29.91009 -0 -2.145649 -7.216779 -1.575428 -0.8271296 -20.65139 -5.800181 -0 16.69602 -0 -3.608903 -7.472491 18.86233 -0.881827 -1.172527 8.503708 -0.5689041 12.91157 -4.214023 1.177377 20.85805 5.364054 2.809772 -18.7681 5.801844 1.920391 -24.84444 12.47009 81.70095 24.66861 -6.788528 -0 0 24.79539 -26.5149 14.10197 15.36035 3.568628 -18.74548 -4.46955 -94.34314 16.95733 30.12235 0 0 -8.325269 2.34143 9.964745 10.54883
15.02691 97.85581 2995.091 0.1329487 -8.751333 -9.030062 0.1199034 13.97138 2.743699 -0 39.08515 -0 -0.6115513 -3.846845 -2.829583 -2.285084 -16.71681 -6.729994 -0 18.40768 -0 -4.244722 -8.333345 18.48258 -0.9455333 -1.069123 8.30551 -0.5245517 12.77541 -4.328763 1.215765 20.90769 5.417405 2.77149 -18.5723 5.893577 1.948478 -24.32131 12.38496 81.94762 24.77218 -7.303802 -0 0 24.11851 -26.54065 14.26853 15.26135 3.639361 -18.79328 -4.487203 -93.74207 17.29602 29.053 0 0 -9.178975 2.157176 9.764608 10.78781
15.04707 98.64343 3001.74 0.4552843 -9.320256 -8.344786 -0.811859 10.18672 3.199187 -0 47.96263 -0 0.8406357 -0.4615759 -4.238247 -3.880392 -11.4517 -7.921634 -0 19.62425 -0 -4.690943 -9.695505 18.02979 -1.012704 -0.9743493 7.950418 -0.4031939 12.62438 -4.58791 1.244837 20.9673 5.506332 2.74644 -18.42585 6.013443 1.970003 -23.55813 12.27892 82.50682 24.93538 -8.362355 -0 0 22.92277 -26.36998 14.43351 14.9526 3.798917 -19.04813 -4.55885 -92.81337 17.67478 27.3785 0 0 -10.60869 2.183485 9.649411 10.76029
15.08837 99.83135 3008.221 0.7673272 -9.325118 -7.429017 -1.346388 4.833403 3.459432 -0 54.25894 -0 1.717495 2.016036 -5.43456 -5.329304 -5.391461 -9.378204 -0 19.72984 -0 -4.656324 -11.53428 17.67033 -1.080838 -0.8945339 7.442067 -0.2014185 12.46272 -4.995887 1.260376 21.03094 5.632718 2.738496 -18.34721 6.158836 1.991342 -22.56955 12.15746 83.38619 25.15662 -9.972882 -0 0 21.21883 -25.98556 14.59034 14.42596 4.047133 -19.51884 -4.682191 -91.57563 18.06076 25.12016 0 0 -12.60996 2.43138 9.629252 10.45484
15.14013 101.0882 3014.333 0.9401519 -8.596128 -6.456253 -1.222978 -1.429583 3.455796 -0 55.42432 -0 1.525416 2.785795 -5.996274 -6.242605 0.3657842 -10.87241 -0 18.74665 -0 -4.045319 -13.53172 17.47403 -1.145687 -0.836499 6.825108 0.06610825 12.30062 -5.522328 1.259016 21.08806 5.789878 2.7497 -18.34892 6.318931 2.021387 -21.43694 12.0329 84.51717 25.41796 -12.00974 -0 0 19.15243 -25.41474 14.7294 13.72413 4.361437 -20.16565 -4.840986 -90.13904 18.4055 22.46512 0 0 -15.0304 2.866414 9.694699 9.919156
15.16252 102.0538 3020.056 0.8913482 -7.332364 -5.580044 -0.4925497 -7.577287 3.084927 -0 50.75514 -0 0.3064873 2.03441 -5.857146 -6.422076 4.870754 -11.93602 -0 17.07022 -0 -3.157862 -15.29993 17.23651 -1.203413 -0.8034402 6.1728 0.3692254 12.14927 -6.107741 1.240719 21.12845 5.963628 2.778435 -18.42863 6.478637 2.067727 -20.28276 11.91894 85.76663 25.69464 -14.23985 -0 0 16.96518 -24.72656 14.84259 12.9322 4.702561 -20.90567 -5.009245 -88.67185 18.67514 19.71429 0 0 -17.60735 3.410661 9.817629 9.25541
15.1101 102.4996 3025.508 0.661879 -5.893842 -4.85743 0.5144062 -13.14919 2.370949 -0 42.22871 -0 -1.419713 0.6345502 -5.341958 -6.068634 8.185359 -12.38706 -0 15.10692 -0 -2.350854 -16.74969 16.76009 -1.25367 -0.7917711 5.526727 0.6860025 12.01121 -6.711122 1.209278 21.15153 6.143301 2.820439 -18.56898 6.630919 2.129335 -19.1698 11.81918 87.05186 25.96484 -16.51357 -0 0 14.7962 -23.97696 14.92799 12.10844 5.046615 -21.6803 -5.172387 -87.26353 18.86693 17.03144 0 0 -20.18105 4.007355 9.973584 8.534864
14.94339 102.3643 3030.819 0.3378853 -4.528407 -4.285315 1.522188 -18.27762 1.467944 -0 32.36655 -0 -3.19009 -0.7003341 -4.788594 -5.497646 10.9469 -12.37454 -0 13.36626 -0 -1.796502 -17.97417 16.01211 -1.297227 -0.7956387 4.898414 1.004544 11.88522 -7.312642 1.169785 21.16345 6.322017 2.871032 -18.74823 6.774347 2.197536 -18.1113 11.73087 88.34572 26.20469 -18.76937 -0 0 12.68674 -23.20012 14.9848 11.27946 5.385615 -22.46327 -5.328119 -85.9352 18.9848 14.45556 0 0 -22.69055 4.635074 10.14996 7.780534
14.63285 101.7056 3036.132 -0.009176346 -3.429271 -3.838172 2.375353 -22.89405 0.4867791 -0 22.9231 -0 -4.699691 -1.510052 -4.389818 -4.90702 13.47103 -11.96688 -0 12.4983 -0 -1.640777 -18.94451 14.97416 -1.33296 -0.8104805 4.322933 1.302967 11.7756 -7.872406 1.127669 21.1682 6.487339 2.924547 -18.94311 6.901996 2.263656 -17.16137 11.65585 89.5669 26.39439 -20.86411 -0 0 10.7566 -22.45338 15.01168 10.5 5.699347 -23.20138 -5.468227 -84.75697 19.03598 12.12598 0 0 -24.98494 5.249674 10.33072 7.043646
14.17246 100.6876 3041.617 -0.3072196 -2.804141 -3.478303 2.97439 -26.50348 -0.4349411 -0 15.51291 -0 -5.681689 -1.509889 -4.258659 -4.4423 15.65029 -11.19211 -0 13.26315 -0 -2.004835 -19.47824 13.70175 -1.357941 -0.8327536 3.858294 1.549641 11.69279 -8.331245 1.088737 21.16753 6.621485 2.974052 -19.12752 7.001509 2.318446 -16.41308 11.60025 90.5796 26.52429 -22.57605 -0 0 9.201222 -21.81916 15.00976 9.853255 5.955691 -23.81527 -5.579848 -83.84048 19.03701 10.27733 0 0 -26.82821 5.783688 10.49618 6.404005
13.58887 99.57375 3047.422 -0.4926137 -2.806522 -3.169637 3.319716 -28.41514 -1.07579 -0 11.49723 -0 -5.956707 -0.712829 -4.449104 -4.199655 17.09885 -10.15283 -0 16.34848 -0 -2.881195 -19.32971 12.39638 -1.369958 -0.8587132 3.547852 1.720017 11.64604 -8.644287 1.05793 21.16335 6.710692 3.013192 -19.27704 7.063423 2.35294 -15.93405 11.56847 91.27628 26.5953 -23.73662 -0 0 8.165295 -21.3666 14.98594 9.404775 6.130445 -24.24484 -5.655934 -83.25825 19.00829 9.078699 0 0 -28.04636 6.184077 10.63041 5.923147
12.92952 98.66199 3053.606 -0.5519135 -3.386521 -2.900007 3.558492 -28.26618 -1.224632 -0 10.95629 -0 -5.610161 0.4317771 -4.906319 -4.14689 17.41357 -9.044353 -0 21.90948 -0 -4.063186 -18.3715 11.3451 -1.369485 -0.883441 3.400126 1.806002 11.63703 -8.799299 1.038478 21.15846 6.751069 3.037604 -19.37306 7.086456 2.361784 -15.73068 11.55954 91.62602 26.6125 -24.30295 -0 0 7.675184 -21.1274 14.95247 9.176414 6.217724 -24.47247 -5.698128 -83.00735 18.9642 8.54751 0 0 -28.60811 6.429007 10.72248 5.624984
12.2364 98.18766 3060.102 -0.5322579 -4.297857 -2.699021 3.887985 -26.23609 -0.8133756 -0 12.54777 -0 -4.984783 1.229304 -5.461068 -4.132158 16.38545 -8.073297 -0 29.46349 -0 -5.24723 -16.67494 10.77405 -1.358955 -0.9006465 3.404719 1.808054 11.66149 -8.801216 1.032939 21.15632 6.744309 3.043936 -19.39944 7.074367 2.342825 -15.77483 11.5691 91.64248 26.57669 -24.30029 -0 0 7.693354 -21.11258 14.92307 9.166404 6.221304 -24.50193 -5.711111 -83.04762 18.91068 8.617246 0 0 -28.55984 6.510348 10.76183 5.517609
11.53049 98.26855 3066.727 -0.501262 -5.262236 -2.636059 4.417193 -22.75686 0.08825205 -0 14.65409 -0 -4.457788 1.096755 -5.912824 -4.005934 14.005 -7.394966 -0 38.2116 -0 -6.1832 -14.42903 10.79494 -1.340517 -0.9044871 3.560598 1.722807 11.715 -8.646562 1.044035 21.15965 6.69018 3.028983 -19.34151 7.029405 2.2957 -16.05479 11.594 91.32292 26.48445 -23.72285 -0 0 8.215018 -21.33755 14.9068 9.3824 6.139975 -24.32468 -5.694554 -83.36492 18.85137 9.263784 0 0 -27.9094 6.409284 10.73654 5.623369
10.81786 98.89595 3073.251 -0.5066855 -6.08101 -2.791191 5.101656 -18.22831 1.308506 -0 16.24812 -0 -4.256882 -0.2157592 -6.110044 -3.703955 10.38184 -7.074474 -0 47.05626 -0 -6.731418 -11.8836 11.41543 -1.316016 -0.8916833 3.871993 1.547078 11.79197 -8.328939 1.073371 21.16949 6.588279 2.99157 -19.19462 6.953136 2.224257 -16.57176 11.63251 90.65761 26.33481 -22.55214 -0 0 9.256085 -21.80657 14.90343 9.831391 5.970287 -23.92694 -5.642531 -83.96888 18.79235 10.49835 0 0 -26.63938 6.105182 10.63971 5.969263
10.10689 99.93448 3079.494 -0.5635537 -6.645318 -3.212407 5.764197 -13.02445 2.547794 -0 16.84912 -0 -4.414748 -2.535436 -5.972899 -3.230702 5.747415 -7.022765 -0 54.37137 -0 -6.864835 -9.366609 12.50298 -1.288701 -0.8619841 4.316656 1.293384 11.88058 -7.869099 1.119511 21.18614 6.446383 2.934931 -18.97183 6.853035 2.137918 -17.28746 11.68029 89.69903 26.13154 -20.87036 -0 0 10.74611 -22.47664 14.9052 10.47872 5.72366 -23.33087 -5.552536 -84.82802 18.73723 12.23664 0 0 -24.83286 5.612007 10.47714 6.542413
9.421168 101.1467 3085.421 -0.6527579 -6.940114 -3.880612 6.188782 -7.576967 3.439216 -0 16.40831 -0 -4.783137 -5.27666 -5.503215 -2.616867 0.5191344 -6.999161 -0 58.33902 -0 -6.661847 -7.247521 13.77958 -1.262934 -0.8172723 4.839036 0.9914097 11.96509 -7.320178 1.178385 21.21052 6.280863 2.865627 -18.6981 6.742788 2.046943 -18.11175 11.72947 88.57367 25.88143 -18.88045 -0 0 12.50306 -23.26248 14.90337 11.24432 5.429905 -22.60448 -5.431939 -85.84618 18.68344 14.26316 0 0 -22.70197 4.988397 10.2666 7.275188
8.796445 102.2622 3091.148 -0.7356917 -7.027958 -4.711378 6.250681 -2.316165 3.741602 -0 15.26242 -0 -5.139946 -7.739615 -4.768099 -1.892934 -4.778092 -6.76387 -0 57.88071 -0 -6.248633 -5.79865 14.95594 -1.241855 -0.7600105 5.388956 0.6679405 12.03414 -6.730488 1.2462 21.24359 6.105809 2.789373 -18.39516 6.633711 1.957807 -18.96487 11.77363 87.39408 25.59303 -16.76514 -0 0 14.36172 -24.09006 14.89193 12.05654 5.116148 -21.81175 -5.290165 -86.93297 18.629 16.38403 0 0 -20.43788 4.292808 10.02596 8.098473
8.267133 103.053 3096.846 -0.7825126 -6.983538 -5.598733 5.980327 2.503795 3.474624 -0 13.85415 -0 -5.355226 -9.569098 -3.852705 -1.086193 -9.770166 -6.249278 -0 53.22896 -0 -5.710407 -5.068551 15.90783 -1.226412 -0.6921947 5.951521 0.3325624 12.08387 -6.115834 1.321129 21.28469 5.92604 2.708819 -18.07428 6.529255 1.874262 -19.82476 11.81149 86.19479 25.2735 -14.58195 -0 0 16.27383 -24.93027 14.8671 12.89072 4.790414 -20.97288 -5.128662 -88.06577 18.57521 18.54738 0 0 -18.09704 3.544605 9.762238 8.990511
7.858448 103.3762 3102.64 -0.7819235 -6.861141 -6.457442 5.494808 6.847595 2.858168 -0 12.57848 -0 -5.419761 -10.82683 -2.843751 -0.2459832 -14.32532 -5.567539 -0 45.61658 -0 -5.078725 -4.90773 16.68983 -1.216538 -0.6153402 6.532908 -0.01519658 12.11429 -5.473203 1.402333 21.33164 5.741388 2.624872 -17.74063 6.428482 1.799724 -20.70279 11.84493 84.96588 24.92656 -12.31565 -0 0 18.26025 -25.78095 14.82671 13.75022 4.449166 -20.08207 -4.943316 -89.26332 18.52139 20.78394 0 0 -15.65887 2.738115 9.473334 9.960695
7.585151 103.1924 3108.569 -0.7331081 -6.719786 -7.233914 4.895769 10.74012 2.171134 -0 11.89726 -0 -5.348245 -11.68224 -1.849475 0.5287331 -18.36824 -4.907296 -0 36.69291 -0 -4.392251 -5.09411 17.4066 -1.2132 -0.5302298 7.126049 -0.3697442 12.12324 -4.81203 1.488448 21.38265 5.555347 2.538817 -17.39984 6.333447 1.738228 -21.58636 11.87385 83.7233 24.55982 -9.997231 -0 0 20.29606 -26.6291 14.77292 14.6234 4.095752 -19.14982 -4.734332 -90.5124 18.46823 23.06538 0 0 -13.15886 1.879336 9.157529 11.00415
7.446197 102.5816 3114.621 -0.6426667 -6.648638 -7.897566 4.234558 14.07189 1.661886 -0 12.39625 -0 -5.115257 -12.14864 -1.024304 1.082229 -21.6581 -4.452319 -0 28.28315 -0 -3.755348 -5.42151 18.09093 -1.219485 -0.4367195 7.687005 -0.7087486 12.10325 -4.174644 1.57695 21.43864 5.380253 2.453446 -17.06171 6.253985 1.693341 -22.40018 11.89243 82.5497 24.19749 -7.781016 -0 0 22.23249 -27.42529 14.71474 15.45454 3.753458 -18.23101 -4.514416 -91.71494 18.43203 25.21045 0 0 -10.77525 1.011808 8.824452 12.06837
7.416876 101.7438 3120.772 -0.5230648 -6.765162 -8.42504 3.516035 16.57346 1.487836 -0 14.68446 -0 -4.649607 -12.00939 -0.5560738 1.241945 -23.76759 -4.318059 -0 22.12255 -0 -3.345875 -5.743759 18.65865 -1.239371 -0.3344578 8.14104 -0.9966109 12.04403 -3.629175 1.664765 21.50438 5.234426 2.372687 -16.7397 6.205633 1.66514 -23.01952 11.88963 81.57637 23.88256 -5.918033 -0 0 23.81928 -28.08876 14.66524 16.15089 3.46301 -17.41725 -4.308687 -92.70219 18.45264 26.91754 0 0 -8.796096 0.2144534 8.501506 13.05376
